<mxfile host="65bd71144e" modified="2024-01-16T00:30:33.880Z" agent="Mozilla/5.0 (X11; Linux x86_64) AppleWebKit/537.36 (KHTML, like Gecko) Code/1.85.1 Chrome/114.0.5735.289 Electron/25.9.7 Safari/537.36" etag="Mx5gY-vNlS4tDU99f-gi" version="22.1.18" type="embed" pages="5">
    <diagram id="6UR49E0zUCKmJUAcSpAE" name="architecture">
        <mxGraphModel dx="508" dy="287" grid="1" gridSize="10" guides="1" tooltips="1" connect="1" arrows="1" fold="1" page="1" pageScale="1" pageWidth="1100" pageHeight="850" math="0" shadow="0">
            <root>
                <mxCell id="DVUXWdo4HBKXd4HaU4E6-0"/>
                <mxCell id="DVUXWdo4HBKXd4HaU4E6-1" parent="DVUXWdo4HBKXd4HaU4E6-0"/>
                <mxCell id="LEx7qD2o24YmSId129aY-12" value="" style="rounded=1;whiteSpace=wrap;html=1;fillColor=#dae8fc;strokeColor=#6c8ebf;" parent="DVUXWdo4HBKXd4HaU4E6-1" vertex="1">
                    <mxGeometry x="640" y="690" width="190" height="150" as="geometry"/>
                </mxCell>
                <mxCell id="IR8gEMqMYILpRB2Ss4oT-7" value="" style="rounded=1;whiteSpace=wrap;html=1;fillColor=#fff2cc;strokeColor=#d6b656;" parent="DVUXWdo4HBKXd4HaU4E6-1" vertex="1">
                    <mxGeometry x="600" y="360" width="250" height="135" as="geometry"/>
                </mxCell>
                <mxCell id="IR8gEMqMYILpRB2Ss4oT-0" value="Actor" style="shape=image;html=1;verticalAlign=top;verticalLabelPosition=bottom;labelBackgroundColor=#ffffff;imageAspect=0;aspect=fixed;image=https://cdn0.iconfinder.com/data/icons/emoji-3-5/64/hand_phone_smartphone-128.png" parent="DVUXWdo4HBKXd4HaU4E6-1" vertex="1">
                    <mxGeometry x="70" y="375" width="50" height="50" as="geometry"/>
                </mxCell>
                <mxCell id="IR8gEMqMYILpRB2Ss4oT-5" value="Google Calendar&lt;br&gt;APIs" style="verticalLabelPosition=bottom;aspect=fixed;html=1;verticalAlign=top;strokeColor=none;align=center;outlineConnect=0;shape=mxgraph.citrix.calendar;" parent="DVUXWdo4HBKXd4HaU4E6-1" vertex="1">
                    <mxGeometry x="690" y="700" width="75" height="100" as="geometry"/>
                </mxCell>
                <mxCell id="IR8gEMqMYILpRB2Ss4oT-6" value="Host" style="verticalLabelPosition=bottom;html=1;verticalAlign=top;align=center;strokeColor=none;fillColor=#00BEF2;shape=mxgraph.azure.user;" parent="DVUXWdo4HBKXd4HaU4E6-1" vertex="1">
                    <mxGeometry x="90" y="715" width="47.5" height="50" as="geometry"/>
                </mxCell>
                <mxCell id="IR8gEMqMYILpRB2Ss4oT-8" value="&amp;nbsp;Backend Apps / APIs" style="text;html=1;align=center;verticalAlign=middle;resizable=0;points=[];autosize=1;" parent="DVUXWdo4HBKXd4HaU4E6-1" vertex="1">
                    <mxGeometry x="660" y="505" width="130" height="20" as="geometry"/>
                </mxCell>
                <mxCell id="IR8gEMqMYILpRB2Ss4oT-9" value="" style="shape=flexArrow;endArrow=classic;html=1;startArrow=block;" parent="DVUXWdo4HBKXd4HaU4E6-1" edge="1">
                    <mxGeometry width="50" height="50" relative="1" as="geometry">
                        <mxPoint x="727" y="540" as="sourcePoint"/>
                        <mxPoint x="727" y="690" as="targetPoint"/>
                    </mxGeometry>
                </mxCell>
                <mxCell id="LEx7qD2o24YmSId129aY-2" value="" style="shape=flexArrow;endArrow=classic;html=1;strokeColor=#000000;startArrow=block;" parent="DVUXWdo4HBKXd4HaU4E6-1" edge="1">
                    <mxGeometry width="50" height="50" relative="1" as="geometry">
                        <mxPoint x="190" y="740" as="sourcePoint"/>
                        <mxPoint x="640" y="740" as="targetPoint"/>
                    </mxGeometry>
                </mxCell>
                <mxCell id="LEx7qD2o24YmSId129aY-3" value="&lt;a href=&quot;https://support.google.com/a/answer/1033925&quot;&gt;Populates API Data Model&amp;nbsp;&lt;br&gt;(Building, Features and Resources)&lt;/a&gt;" style="edgeLabel;html=1;align=center;verticalAlign=middle;resizable=0;points=[];" parent="LEx7qD2o24YmSId129aY-2" vertex="1" connectable="0">
                    <mxGeometry x="-0.2053" y="-2" relative="1" as="geometry">
                        <mxPoint x="41" y="-22" as="offset"/>
                    </mxGeometry>
                </mxCell>
                <mxCell id="LEx7qD2o24YmSId129aY-5" value="" style="aspect=fixed;pointerEvents=1;shadow=0;dashed=0;html=1;strokeColor=none;labelPosition=center;verticalLabelPosition=bottom;verticalAlign=top;align=center;fillColor=#00188D;shape=mxgraph.azure.laptop" parent="DVUXWdo4HBKXd4HaU4E6-1" vertex="1">
                    <mxGeometry x="70" y="455" width="50" height="30" as="geometry"/>
                </mxCell>
                <mxCell id="LEx7qD2o24YmSId129aY-6" value="Reservation &lt;br&gt;Request" style="html=1;verticalLabelPosition=bottom;align=center;labelBackgroundColor=#ffffff;verticalAlign=top;strokeWidth=2;strokeColor=#0080F0;shadow=0;dashed=0;shape=mxgraph.ios7.icons.calendar;" parent="DVUXWdo4HBKXd4HaU4E6-1" vertex="1">
                    <mxGeometry x="550" y="660" width="30" height="30" as="geometry"/>
                </mxCell>
                <mxCell id="LEx7qD2o24YmSId129aY-7" value="" style="shape=flexArrow;endArrow=classic;html=1;startArrow=block;" parent="DVUXWdo4HBKXd4HaU4E6-1" edge="1">
                    <mxGeometry width="50" height="50" relative="1" as="geometry">
                        <mxPoint x="640" y="670" as="sourcePoint"/>
                        <mxPoint x="140" y="470" as="targetPoint"/>
                    </mxGeometry>
                </mxCell>
                <mxCell id="ki2Zh7Pq-nfiL1ydGcVm-2" value="" style="strokeColor=#dddddd;shadow=1;strokeWidth=1;rounded=1;absoluteArcSize=1;arcSize=2;" parent="DVUXWdo4HBKXd4HaU4E6-1" vertex="1">
                    <mxGeometry x="730" y="375" width="100" height="60" as="geometry"/>
                </mxCell>
                <mxCell id="ki2Zh7Pq-nfiL1ydGcVm-3" value="Cloud&#xa;SQL" style="dashed=0;connectable=0;html=1;fillColor=#5184F3;strokeColor=none;shape=mxgraph.gcp2.hexIcon;prIcon=cloud_sql;part=1;labelPosition=right;verticalLabelPosition=middle;align=left;verticalAlign=middle;spacingLeft=5;fontColor=#999999;fontSize=12;" parent="ki2Zh7Pq-nfiL1ydGcVm-2" vertex="1">
                    <mxGeometry y="0.5" width="44" height="39" relative="1" as="geometry">
                        <mxPoint x="5" y="-19.5" as="offset"/>
                    </mxGeometry>
                </mxCell>
                <mxCell id="ki2Zh7Pq-nfiL1ydGcVm-4" value="" style="strokeColor=#dddddd;shadow=1;strokeWidth=1;rounded=1;absoluteArcSize=1;arcSize=2;" parent="DVUXWdo4HBKXd4HaU4E6-1" vertex="1">
                    <mxGeometry x="610" y="375" width="110" height="60" as="geometry"/>
                </mxCell>
                <mxCell id="ki2Zh7Pq-nfiL1ydGcVm-5" value="Compute&#xa;Engine" style="dashed=0;connectable=0;html=1;fillColor=#5184F3;strokeColor=none;shape=mxgraph.gcp2.hexIcon;prIcon=compute_engine;part=1;labelPosition=right;verticalLabelPosition=middle;align=left;verticalAlign=middle;spacingLeft=5;fontColor=#999999;fontSize=12;" parent="ki2Zh7Pq-nfiL1ydGcVm-4" vertex="1">
                    <mxGeometry y="0.5" width="44" height="39" relative="1" as="geometry">
                        <mxPoint x="5" y="-19.5" as="offset"/>
                    </mxGeometry>
                </mxCell>
                <mxCell id="ki2Zh7Pq-nfiL1ydGcVm-6" value="Calendar &lt;br&gt;Confirmation" style="html=1;verticalLabelPosition=bottom;align=center;labelBackgroundColor=#ffffff;verticalAlign=top;strokeWidth=2;strokeColor=#0080F0;shadow=0;dashed=0;shape=mxgraph.ios7.icons.calendar;" parent="DVUXWdo4HBKXd4HaU4E6-1" vertex="1">
                    <mxGeometry x="190" y="412.5" width="30" height="30" as="geometry"/>
                </mxCell>
                <mxCell id="ki2Zh7Pq-nfiL1ydGcVm-9" value="&amp;nbsp;Native Web Apps" style="text;html=1;strokeColor=none;fillColor=none;align=center;verticalAlign=middle;whiteSpace=wrap;rounded=0;" parent="DVUXWdo4HBKXd4HaU4E6-1" vertex="1">
                    <mxGeometry x="20" y="415" width="40" height="20" as="geometry"/>
                </mxCell>
                <mxCell id="ki2Zh7Pq-nfiL1ydGcVm-10" value="" style="html=1;dashed=0;whitespace=wrap;fillColor=#2875E2;strokeColor=#ffffff;points=[[0.005,0.63,0],[0.1,0.2,0],[0.9,0.2,0],[0.5,0,0],[0.995,0.63,0],[0.72,0.99,0],[0.5,1,0],[0.28,0.99,0]];shape=mxgraph.kubernetes.icon;prIcon=api" parent="DVUXWdo4HBKXd4HaU4E6-1" vertex="1">
                    <mxGeometry x="703" y="446" width="50" height="48" as="geometry"/>
                </mxCell>
                <mxCell id="ki2Zh7Pq-nfiL1ydGcVm-11" value="Confirmation &lt;br&gt;QR Code" style="shape=image;html=1;verticalAlign=top;verticalLabelPosition=bottom;labelBackgroundColor=#ffffff;imageAspect=0;aspect=fixed;image=https://cdn1.iconfinder.com/data/icons/ecommerce-and-business-icon-set/128/qr-code.png" parent="DVUXWdo4HBKXd4HaU4E6-1" vertex="1">
                    <mxGeometry x="260" y="405" width="50" height="50" as="geometry"/>
                </mxCell>
            </root>
        </mxGraphModel>
    </diagram>
    <diagram id="uDixLBJ5sf7AJKXVnIRn" name="flow">
        <mxGraphModel dx="508" dy="287" grid="1" gridSize="10" guides="1" tooltips="1" connect="1" arrows="1" fold="1" page="1" pageScale="1" pageWidth="850" pageHeight="1100" math="0" shadow="0">
            <root>
                <mxCell id="O6MYa030lRG6c-xs35VH-0"/>
                <mxCell id="O6MYa030lRG6c-xs35VH-1" parent="O6MYa030lRG6c-xs35VH-0"/>
                <mxCell id="O6MYa030lRG6c-xs35VH-2" value="" style="verticalLabelPosition=bottom;verticalAlign=top;html=1;shape=mxgraph.basic.partConcEllipse;startAngle=0.75;endAngle=0.5;arcWidth=0.25;fillColor=#10739E;strokeColor=none;shadow=0;" parent="O6MYa030lRG6c-xs35VH-1" vertex="1">
                    <mxGeometry x="260" y="270" width="120" height="120" as="geometry"/>
                </mxCell>
                <mxCell id="O6MYa030lRG6c-xs35VH-3" value="" style="verticalLabelPosition=bottom;verticalAlign=top;html=1;shape=mxgraph.basic.partConcEllipse;startAngle=0.25;endAngle=0;arcWidth=0.25;fillColor=#F2931E;strokeColor=none;shadow=0;" parent="O6MYa030lRG6c-xs35VH-1" vertex="1">
                    <mxGeometry x="260" y="375" width="120" height="120" as="geometry"/>
                </mxCell>
                <mxCell id="O6MYa030lRG6c-xs35VH-4" value="" style="verticalLabelPosition=bottom;verticalAlign=top;html=1;shape=mxgraph.basic.partConcEllipse;startAngle=0.75;endAngle=0.5;arcWidth=0.25;fillColor=#AE4132;strokeColor=none;shadow=0;" parent="O6MYa030lRG6c-xs35VH-1" vertex="1">
                    <mxGeometry x="365" y="375" width="120" height="120" as="geometry"/>
                </mxCell>
                <mxCell id="O6MYa030lRG6c-xs35VH-5" value="" style="verticalLabelPosition=bottom;verticalAlign=top;html=1;shape=mxgraph.basic.partConcEllipse;startAngle=0.25;endAngle=0;arcWidth=0.25;fillColor=#23445D;strokeColor=none;shadow=0;" parent="O6MYa030lRG6c-xs35VH-1" vertex="1">
                    <mxGeometry x="365" y="480" width="120" height="120" as="geometry"/>
                </mxCell>
                <mxCell id="O6MYa030lRG6c-xs35VH-6" value="" style="verticalLabelPosition=bottom;verticalAlign=top;html=1;shape=mxgraph.basic.partConcEllipse;startAngle=0.75;endAngle=0.5;arcWidth=0.25;fillColor=#12AAB5;strokeColor=none;shadow=0;" parent="O6MYa030lRG6c-xs35VH-1" vertex="1">
                    <mxGeometry x="470" y="480" width="120" height="120" as="geometry"/>
                </mxCell>
                <mxCell id="O6MYa030lRG6c-xs35VH-7" value="1" style="shape=ellipse;strokeWidth=6;strokeColor=#10739E;fontSize=15;html=1;fontStyle=1;fontColor=#10739E;shadow=1;" parent="O6MYa030lRG6c-xs35VH-1" vertex="1">
                    <mxGeometry x="295" y="305" width="50" height="50" as="geometry"/>
                </mxCell>
                <mxCell id="O6MYa030lRG6c-xs35VH-8" value="2" style="shape=ellipse;strokeWidth=6;strokeColor=#F2931E;fontSize=15;html=1;fontStyle=1;fontColor=#F2931E;shadow=1;" parent="O6MYa030lRG6c-xs35VH-1" vertex="1">
                    <mxGeometry x="295" y="410" width="50" height="50" as="geometry"/>
                </mxCell>
                <mxCell id="O6MYa030lRG6c-xs35VH-9" value="3" style="shape=ellipse;strokeWidth=6;strokeColor=#AE4132;fontSize=15;html=1;fontStyle=1;fontColor=#AE4132;shadow=1;" parent="O6MYa030lRG6c-xs35VH-1" vertex="1">
                    <mxGeometry x="400" y="410" width="50" height="50" as="geometry"/>
                </mxCell>
                <mxCell id="O6MYa030lRG6c-xs35VH-10" value="4" style="shape=ellipse;strokeWidth=6;strokeColor=#23445D;fontSize=15;html=1;fontStyle=1;fontColor=#23445D;shadow=1;" parent="O6MYa030lRG6c-xs35VH-1" vertex="1">
                    <mxGeometry x="400" y="515" width="50" height="50" as="geometry"/>
                </mxCell>
                <mxCell id="O6MYa030lRG6c-xs35VH-11" value="5" style="shape=ellipse;strokeWidth=6;strokeColor=#12AAB5;fontSize=15;html=1;fontStyle=1;fontColor=#12AAB5;shadow=1;" parent="O6MYa030lRG6c-xs35VH-1" vertex="1">
                    <mxGeometry x="505" y="515" width="50" height="50" as="geometry"/>
                </mxCell>
                <mxCell id="O6MYa030lRG6c-xs35VH-12" value="&lt;font style=&quot;font-size: 10px&quot;&gt;&lt;font style=&quot;font-size: 12px&quot; color=&quot;#10739E&quot;&gt;&lt;b&gt;Backend&lt;/b&gt;&lt;/font&gt;&lt;br&gt;&lt;font size=&quot;1&quot;&gt;Admin backend sets up section/course calendar events for all registered students&lt;/font&gt;&lt;/font&gt;" style="rounded=1;strokeColor=none;fillColor=#EEEEEE;align=center;arcSize=12;verticalAlign=top;whiteSpace=wrap;html=1;fontSize=12;spacing=3;shadow=0;" parent="O6MYa030lRG6c-xs35VH-1" vertex="1">
                    <mxGeometry x="390" y="290" width="180" height="70" as="geometry"/>
                </mxCell>
                <mxCell id="O6MYa030lRG6c-xs35VH-13" value="&lt;font&gt;&lt;font style=&quot;font-size: 12px&quot; color=&quot;#F2931E&quot;&gt;&lt;b&gt;App&lt;/b&gt;&lt;/font&gt;&lt;br&gt;&lt;br&gt;&lt;span style=&quot;font-size: 10px&quot;&gt;Student sends booking requests up to [48h] before the section/class starts and takes a health pledge.&lt;/span&gt;&lt;br&gt;&lt;/font&gt;" style="rounded=1;strokeColor=none;fillColor=#EEEEEE;align=center;arcSize=12;verticalAlign=top;whiteSpace=wrap;html=1;fontSize=12;spacing=3;shadow=0;" parent="O6MYa030lRG6c-xs35VH-1" vertex="1">
                    <mxGeometry x="70" y="400" width="180" height="80" as="geometry"/>
                </mxCell>
                <mxCell id="O6MYa030lRG6c-xs35VH-14" value="&lt;font&gt;&lt;font style=&quot;font-size: 12px&quot; color=&quot;#AE4132&quot;&gt;&lt;b&gt;Backend&lt;/b&gt;&lt;/font&gt;&lt;br&gt;&lt;span style=&quot;font-size: 10px&quot;&gt;It sends booking confirmation to a subset of students selected by a policy (algorithm).&lt;/span&gt;&lt;br&gt;&lt;/font&gt;" style="rounded=1;strokeColor=none;fillColor=#EEEEEE;align=center;arcSize=12;verticalAlign=top;whiteSpace=wrap;html=1;fontSize=12;spacing=3;shadow=0;" parent="O6MYa030lRG6c-xs35VH-1" vertex="1">
                    <mxGeometry x="495" y="400" width="180" height="70" as="geometry"/>
                </mxCell>
                <mxCell id="O6MYa030lRG6c-xs35VH-15" value="&lt;font&gt;&lt;font style=&quot;font-size: 12px&quot; color=&quot;#23445D&quot;&gt;&lt;b&gt;App&lt;/b&gt;&lt;/font&gt;&lt;br&gt;&lt;font size=&quot;1&quot;&gt;Confirmed students 24h before class starts, receive&amp;nbsp;&lt;/font&gt;&lt;span style=&quot;font-size: x-small&quot;&gt;calendar confirmation and can access the&amp;nbsp;&lt;/span&gt;&lt;font size=&quot;1&quot;&gt;QR Code.&lt;/font&gt;&lt;br&gt;&lt;/font&gt;" style="rounded=1;strokeColor=none;fillColor=#EEEEEE;align=center;arcSize=12;verticalAlign=top;whiteSpace=wrap;html=1;fontSize=12;spacing=3;shadow=0;" parent="O6MYa030lRG6c-xs35VH-1" vertex="1">
                    <mxGeometry x="150" y="505" width="205" height="75" as="geometry"/>
                </mxCell>
                <mxCell id="O6MYa030lRG6c-xs35VH-16" value="&lt;font&gt;&lt;font color=&quot;#12aab5&quot;&gt;&lt;b&gt;App&lt;/b&gt;&lt;/font&gt;&lt;br&gt;&lt;font size=&quot;1&quot;&gt;Professor scans the students&#39; QR code&amp;nbsp;&lt;/font&gt;&lt;span style=&quot;font-size: x-small&quot;&gt;at the beginning of the class and attendance is updated.&lt;/span&gt;&lt;br&gt;&lt;/font&gt;" style="rounded=1;strokeColor=none;fillColor=#EEEEEE;align=center;arcSize=12;verticalAlign=top;whiteSpace=wrap;html=1;fontSize=12;spacing=3;shadow=0;" parent="O6MYa030lRG6c-xs35VH-1" vertex="1">
                    <mxGeometry x="600" y="505" width="180" height="70" as="geometry"/>
                </mxCell>
            </root>
        </mxGraphModel>
    </diagram>
    <diagram id="9K_WC3aeW83WYNAwP4Ut" name="roles">
        <mxGraphModel dx="508" dy="287" grid="1" gridSize="10" guides="1" tooltips="1" connect="1" arrows="1" fold="1" page="1" pageScale="1" pageWidth="850" pageHeight="1100" math="0" shadow="0">
            <root>
                <mxCell id="loiepSlWFmzy4rCkkztg-0"/>
                <mxCell id="loiepSlWFmzy4rCkkztg-1" parent="loiepSlWFmzy4rCkkztg-0"/>
                <mxCell id="loiepSlWFmzy4rCkkztg-10" value="" style="group" parent="loiepSlWFmzy4rCkkztg-1" vertex="1" connectable="0">
                    <mxGeometry x="150" y="60" width="440" height="430" as="geometry"/>
                </mxCell>
                <mxCell id="loiepSlWFmzy4rCkkztg-6" value="" style="ellipse;html=1;strokeWidth=4;fillColor=#10739E;strokeColor=#ffffff;shadow=0;fontSize=10;fontColor=#FFFFFF;align=center;fontStyle=0;whiteSpace=wrap;spacing=10;" parent="loiepSlWFmzy4rCkkztg-10" vertex="1">
                    <mxGeometry width="440" height="430" as="geometry"/>
                </mxCell>
                <mxCell id="loiepSlWFmzy4rCkkztg-7" value="" style="ellipse;html=1;strokeWidth=4;fillColor=#F2931E;strokeColor=#ffffff;shadow=0;fontSize=10;fontColor=#FFFFFF;align=center;fontStyle=0;whiteSpace=wrap;spacing=10;" parent="loiepSlWFmzy4rCkkztg-10" vertex="1">
                    <mxGeometry x="62.857142857142854" y="61.42857142857143" width="314.2857142857143" height="307.14285714285717" as="geometry"/>
                </mxCell>
                <mxCell id="loiepSlWFmzy4rCkkztg-8" value="" style="ellipse;html=1;strokeWidth=4;fillColor=#AE4132;strokeColor=#ffffff;shadow=0;fontSize=10;fontColor=#FFFFFF;align=center;fontStyle=0;whiteSpace=wrap;spacing=10;" parent="loiepSlWFmzy4rCkkztg-10" vertex="1">
                    <mxGeometry x="125.71428571428571" y="122.85714285714286" width="188.57142857142856" height="184.2857142857143" as="geometry"/>
                </mxCell>
                <mxCell id="loiepSlWFmzy4rCkkztg-9" value="STUDENT" style="ellipse;html=1;strokeWidth=4;fillColor=#23445D;strokeColor=#ffffff;shadow=0;fontSize=10;fontColor=#FFFFFF;align=center;fontStyle=0;whiteSpace=wrap;spacing=10;" parent="loiepSlWFmzy4rCkkztg-10" vertex="1">
                    <mxGeometry x="188.57142857142856" y="184.2857142857143" width="62.857142857142854" height="61.42857142857143" as="geometry"/>
                </mxCell>
                <mxCell id="loiepSlWFmzy4rCkkztg-11" value="FACULTY" style="text;html=1;strokeColor=none;fillColor=none;align=center;verticalAlign=middle;whiteSpace=wrap;rounded=0;fontColor=#FFFFFF;" parent="loiepSlWFmzy4rCkkztg-10" vertex="1">
                    <mxGeometry x="200" y="150" width="40" height="20" as="geometry"/>
                </mxCell>
                <mxCell id="loiepSlWFmzy4rCkkztg-12" value="ADMINISTRATION" style="text;html=1;strokeColor=none;fillColor=none;align=center;verticalAlign=middle;whiteSpace=wrap;rounded=0;fontColor=#FFFFFF;" parent="loiepSlWFmzy4rCkkztg-10" vertex="1">
                    <mxGeometry x="200" y="90" width="40" height="20" as="geometry"/>
                </mxCell>
            </root>
        </mxGraphModel>
    </diagram>
    <diagram id="oVmoF0TRaC0kAYSAslc9" name="capacity-limits">
        <mxGraphModel dx="508" dy="287" grid="1" gridSize="10" guides="1" tooltips="1" connect="1" arrows="1" fold="1" page="1" pageScale="1" pageWidth="850" pageHeight="1100" math="1" shadow="0">
            <root>
                <mxCell id="KMY4CzMLG-l6zkBM7bU9-0"/>
                <mxCell id="KMY4CzMLG-l6zkBM7bU9-1" parent="KMY4CzMLG-l6zkBM7bU9-0"/>
                <mxCell id="KMY4CzMLG-l6zkBM7bU9-7" value="" style="verticalLabelPosition=middle;verticalAlign=middle;html=1;shape=mxgraph.infographic.cylinder;fillColor=#f8cecc;strokeColor=#b85450;shadow=0;align=left;labelPosition=right;spacingLeft=10;fontStyle=1;rotation=90;" parent="KMY4CzMLG-l6zkBM7bU9-1" vertex="1">
                    <mxGeometry x="310" y="110" width="100" height="430" as="geometry"/>
                </mxCell>
                <mxCell id="KMY4CzMLG-l6zkBM7bU9-3" value="" style="verticalLabelPosition=middle;verticalAlign=middle;html=1;shape=mxgraph.infographic.cylinder;fillColor=#d5e8d4;strokeColor=#82b366;shadow=0;align=left;labelPosition=right;spacingLeft=10;fontStyle=1;rotation=90;" parent="KMY4CzMLG-l6zkBM7bU9-1" vertex="1">
                    <mxGeometry x="170" y="250" width="100" height="150" as="geometry"/>
                </mxCell>
                <mxCell id="KMY4CzMLG-l6zkBM7bU9-12" value="&lt;span style=&quot;font-weight: 700 ; text-align: left&quot;&gt;$$K$$&lt;/span&gt;" style="text;html=1;strokeColor=none;fillColor=none;align=center;verticalAlign=middle;whiteSpace=wrap;rounded=0;" parent="KMY4CzMLG-l6zkBM7bU9-1" vertex="1">
                    <mxGeometry x="490" y="315" width="40" height="20" as="geometry"/>
                </mxCell>
                <mxCell id="KMY4CzMLG-l6zkBM7bU9-13" value="&lt;span style=&quot;font-weight: 700 ; text-align: left&quot;&gt;$$C$$&lt;/span&gt;" style="text;html=1;strokeColor=none;fillColor=none;align=center;verticalAlign=middle;whiteSpace=wrap;rounded=0;" parent="KMY4CzMLG-l6zkBM7bU9-1" vertex="1">
                    <mxGeometry x="220" y="310" width="40" height="20" as="geometry"/>
                </mxCell>
            </root>
        </mxGraphModel>
    </diagram>
    <diagram id="m_3KfsEvLQpTZX2GAXlw" name="roadmap">
        <mxGraphModel dx="508" dy="287" grid="1" gridSize="10" guides="1" tooltips="1" connect="1" arrows="1" fold="1" page="1" pageScale="1" pageWidth="850" pageHeight="1100" math="0" shadow="0">
            <root>
                <mxCell id="YmnDM2qmXiPz7Pyf6KJ5-0"/>
                <mxCell id="YmnDM2qmXiPz7Pyf6KJ5-1" parent="YmnDM2qmXiPz7Pyf6KJ5-0"/>
                <mxCell id="YmnDM2qmXiPz7Pyf6KJ5-3" value="" style="fillColor=#dddddd;rounded=0;strokeColor=none;fontColor=#FFFFFF;" parent="YmnDM2qmXiPz7Pyf6KJ5-1" vertex="1">
                    <mxGeometry x="80" y="280" width="575" height="30" as="geometry"/>
                </mxCell>
                <mxCell id="YmnDM2qmXiPz7Pyf6KJ5-5" value="July" style="shape=mxgraph.infographic.ribbonSimple;notch1=0;notch2=10;notch=0;html=1;fillColor=#F2931E;strokeColor=none;shadow=0;fontSize=17;fontColor=#FFFFFF;align=left;spacingLeft=10;fontStyle=1;" parent="YmnDM2qmXiPz7Pyf6KJ5-1" vertex="1">
                    <mxGeometry x="180" y="270" width="120" height="50" as="geometry"/>
                </mxCell>
                <mxCell id="YmnDM2qmXiPz7Pyf6KJ5-6" value="August" style="shape=mxgraph.infographic.ribbonSimple;notch1=0;notch2=10;notch=0;html=1;fillColor=#AE4132;strokeColor=none;shadow=0;fontSize=17;fontColor=#FFFFFF;align=left;spacingLeft=10;fontStyle=1;" parent="YmnDM2qmXiPz7Pyf6KJ5-1" vertex="1">
                    <mxGeometry x="340" y="270" width="120" height="50" as="geometry"/>
                </mxCell>
                <mxCell id="YmnDM2qmXiPz7Pyf6KJ5-7" value="Sept" style="shape=mxgraph.infographic.ribbonSimple;notch1=0;notch2=10;notch=0;html=1;fillColor=#23445D;strokeColor=none;shadow=0;fontSize=17;fontColor=#FFFFFF;align=left;spacingLeft=10;fontStyle=1;" parent="YmnDM2qmXiPz7Pyf6KJ5-1" vertex="1">
                    <mxGeometry x="500" y="270" width="120" height="50" as="geometry"/>
                </mxCell>
                <mxCell id="YmnDM2qmXiPz7Pyf6KJ5-10" value="&lt;font style=&quot;font-size: 12px&quot;&gt;&lt;font color=&quot;#f2931e&quot; style=&quot;font-size: 12px&quot;&gt;&lt;b style=&quot;font-size: 12px&quot;&gt;beta&lt;/b&gt;&lt;/font&gt;&lt;br style=&quot;font-size: 12px&quot;&gt;&lt;font style=&quot;font-size: 12px&quot;&gt;Integration API &lt;br style=&quot;font-size: 12px&quot;&gt;Test with two institutions&amp;nbsp;&lt;br style=&quot;font-size: 12px&quot;&gt;Migration to GCP/AWS/Azure&lt;br style=&quot;font-size: 12px&quot;&gt;&lt;/font&gt;&lt;/font&gt;" style="rounded=1;strokeColor=none;fillColor=#DDDDDD;align=center;arcSize=12;verticalAlign=top;whiteSpace=wrap;html=1;fontSize=12;" parent="YmnDM2qmXiPz7Pyf6KJ5-1" vertex="1">
                    <mxGeometry x="140" y="330" width="200" height="70" as="geometry"/>
                </mxCell>
                <mxCell id="YmnDM2qmXiPz7Pyf6KJ5-11" value="&lt;font&gt;&lt;font color=&quot;#ae4132&quot;&gt;&lt;b&gt;pre-launch / QA&lt;br&gt;&lt;/b&gt;&lt;/font&gt;&lt;br&gt;Testing at scale&lt;br&gt;Dry runs&lt;br&gt;&lt;br&gt;&amp;nbsp;&lt;br&gt;&lt;/font&gt;" style="rounded=1;strokeColor=none;fillColor=#DDDDDD;align=center;arcSize=12;verticalAlign=top;whiteSpace=wrap;html=1;fontSize=12;" parent="YmnDM2qmXiPz7Pyf6KJ5-1" vertex="1">
                    <mxGeometry x="300" y="190" width="200" height="70" as="geometry"/>
                </mxCell>
                <mxCell id="YmnDM2qmXiPz7Pyf6KJ5-12" value="&lt;font&gt;&lt;font color=&quot;#23445d&quot;&gt;&lt;b&gt;production&lt;/b&gt;&lt;/font&gt;&lt;br&gt;&lt;br&gt;Go live.&lt;br&gt;&lt;/font&gt;" style="rounded=1;strokeColor=none;fillColor=#DDDDDD;align=center;arcSize=12;verticalAlign=top;whiteSpace=wrap;html=1;fontSize=12;" parent="YmnDM2qmXiPz7Pyf6KJ5-1" vertex="1">
                    <mxGeometry x="460" y="330" width="200" height="70" as="geometry"/>
                </mxCell>
            </root>
        </mxGraphModel>
    </diagram>
</mxfile>